<?xml version="1.0" standalone="no"?>
<!DOCTYPE svg PUBLIC "-//W3C//DTD SVG 20010904//EN"
 "http://www.w3.org/TR/2001/REC-SVG-20010904/DTD/svg10.dtd">
<svg version="1.0" xmlns="http://www.w3.org/2000/svg"
 width="512.000000pt" height="512.000000pt" viewBox="0 0 512.000000 512.000000"
 preserveAspectRatio="xMidYMid meet">
<metadata>
Created by potrace 1.11, written by Peter Selinger 2001-2013
</metadata>
<g transform="translate(0.000000,512.000000) scale(0.100000,-0.100000)"
fill="#000000" stroke="none">
<path d="M85 5091 c-11 -5 -29 -19 -40 -31 -19 -21 -20 -36 -20 -261 l0 -239
28 -27 27 -28 240 0 240 0 27 28 28 27 0 240 0 240 -28 27 -27 28 -228 2
c-125 1 -236 -2 -247 -6z m477 -48 c16 -15 18 -36 18 -241 0 -196 -2 -228 -17
-244 -15 -16 -36 -18 -241 -18 -196 0 -228 2 -244 17 -16 15 -18 36 -18 241 0
196 2 228 17 244 15 16 36 18 241 18 196 0 228 -2 244 -17z"/>
<path d="M725 5091 c-11 -5 -29 -19 -40 -31 -19 -21 -20 -36 -20 -261 l0 -239
28 -27 c27 -27 30 -28 174 -33 132 -5 144 -6 128 -20 -13 -11 -53 -16 -146
-20 -124 -5 -130 -6 -156 -33 -27 -26 -28 -32 -33 -156 -4 -93 -9 -133 -20
-146 -14 -16 -15 -4 -20 128 -5 144 -6 147 -33 174 l-27 28 -240 0 -240 0 -27
-28 -28 -27 0 -240 0 -240 28 -27 27 -28 185 -3 184 -3 -36 -62 c-148 -251
-254 -559 -304 -877 -30 -189 -32 -513 -5 -690 16 -105 49 -271 61 -311 4 -13
-4 -17 -41 -22 -32 -3 -54 -13 -73 -31 l-26 -26 0 -240 0 -240 28 -27 27 -28
172 -3 c147 -3 174 -6 184 -20 12 -16 -1 -17 -172 -22 l-184 -5 -27 -28 -28
-27 0 -240 0 -240 28 -27 27 -28 240 0 240 0 27 28 c27 27 28 30 33 174 5 132
6 144 20 128 11 -13 16 -53 20 -146 5 -124 6 -130 33 -156 26 -27 32 -28 156
-33 93 -4 133 -9 146 -20 16 -14 4 -15 -128 -20 -144 -5 -147 -6 -174 -33
l-28 -27 0 -240 0 -240 28 -27 27 -28 240 0 240 0 27 28 28 27 5 184 c5 171 6
184 22 172 14 -10 17 -37 20 -184 l3 -172 28 -27 27 -28 240 0 240 0 26 26
c18 18 28 41 31 73 3 25 8 46 12 46 17 -1 29 -19 34 -54 4 -23 17 -51 32 -65
l25 -26 240 0 239 0 28 28 c37 34 69 34 106 0 l28 -28 239 0 240 0 25 26 c15
14 28 42 32 65 5 35 17 53 34 54 4 0 9 -21 12 -46 3 -32 13 -55 31 -73 l26
-26 240 0 240 0 27 28 28 27 3 172 c3 147 6 174 20 184 16 12 17 -1 22 -172
l5 -184 28 -27 27 -28 240 0 240 0 27 28 28 27 0 240 0 240 -28 27 c-27 27
-30 28 -174 33 -132 5 -144 6 -128 20 13 11 53 16 146 20 124 5 130 6 156 33
27 26 28 32 33 156 4 93 9 133 20 146 14 16 15 4 20 -128 5 -144 6 -147 33
-174 l27 -28 240 0 240 0 27 28 28 27 0 240 0 240 -28 27 -27 28 -185 3 -184
3 36 62 c148 251 254 559 304 877 30 189 32 513 5 690 -16 105 -49 271 -61
311 -4 13 4 17 41 22 32 3 54 13 73 31 l26 26 0 240 0 240 -28 27 -27 28 -172
3 c-147 3 -174 6 -184 20 -12 16 1 17 172 22 l184 5 27 28 28 27 0 240 0 240
-28 27 -27 28 -240 0 -240 0 -27 -28 c-27 -27 -28 -30 -33 -174 -5 -132 -6
-144 -20 -128 -11 13 -16 53 -20 146 -5 124 -6 130 -33 156 -26 27 -32 28
-156 33 -93 4 -133 9 -146 20 -16 14 -4 15 128 20 144 5 147 6 174 33 l28 27
0 240 0 240 -28 27 -27 28 -240 0 -240 0 -27 -28 -28 -27 -5 -184 c-5 -171 -6
-184 -22 -172 -14 10 -17 37 -20 184 l-3 172 -28 27 -27 28 -240 0 -240 0 -26
-26 c-18 -18 -28 -41 -31 -73 -3 -25 -8 -46 -12 -46 -17 1 -29 19 -34 54 -4
23 -17 51 -32 65 l-25 26 -240 0 -239 0 -28 -27 c-16 -16 -40 -28 -53 -28 -13
0 -37 12 -53 28 l-28 27 -239 0 -240 0 -25 -26 c-15 -14 -28 -42 -32 -65 -5
-35 -17 -53 -34 -54 -4 0 -9 21 -12 46 -3 32 -13 55 -31 73 l-26 26 -240 0
-240 0 -27 -28 -28 -27 -3 -172 c-3 -147 -6 -174 -20 -184 -16 -12 -17 1 -22
172 l-5 184 -28 27 -27 28 -228 2 c-125 1 -236 -2 -247 -6z m1757 -48 c16 -15
18 -36 18 -241 0 -196 -2 -228 -17 -244 -15 -16 -36 -18 -241 -18 -196 0 -228
2 -244 17 -16 15 -18 36 -18 241 0 196 2 228 17 244 15 16 36 18 241 18 196 0
228 -2 244 -17z m1280 0 c16 -15 18 -36 18 -241 0 -196 -2 -228 -17 -244 -15
-16 -36 -18 -241 -18 -196 0 -228 2 -244 17 -16 15 -18 36 -18 241 0 196 2
228 17 244 15 16 36 18 241 18 196 0 228 -2 244 -17z m-1180 -323 c3 -159 3
-160 31 -187 l27 -28 240 0 240 0 27 28 c27 26 28 32 31 146 3 109 5 118 22
114 16 -4 19 -18 22 -119 3 -109 4 -115 31 -141 l27 -28 226 -3 c186 -3 230 0
255 12 30 15 32 14 91 -25 l60 -41 -24 -25 c-23 -24 -23 -27 -23 -264 l0 -239
28 -27 27 -28 239 0 c237 0 240 0 264 23 l25 24 41 -60 c39 -59 40 -61 25 -91
-12 -25 -15 -69 -12 -255 l3 -226 28 -27 c26 -27 32 -28 142 -31 63 -2 115 -5
115 -6 0 -2 9 -40 20 -84 135 -541 76 -1104 -166 -1592 -40 -80 -100 -187
-134 -239 l-61 -93 -25 23 c-25 24 -27 24 -265 24 l-239 0 -27 -28 -28 -27 0
-239 c0 -237 0 -240 23 -264 l24 -25 -60 -41 c-59 -39 -61 -40 -91 -25 -25 12
-69 15 -255 12 l-226 -3 -27 -28 c-27 -26 -28 -32 -31 -141 -3 -101 -6 -115
-22 -119 -17 -4 -19 5 -22 114 -3 114 -4 120 -31 146 l-27 28 -240 0 -240 0
-27 -28 c-28 -27 -28 -28 -31 -187 -3 -148 -5 -160 -22 -160 -17 0 -19 12 -22
160 -3 159 -3 160 -31 187 l-27 28 -240 0 -240 0 -27 -28 c-27 -26 -28 -32
-31 -146 -3 -109 -5 -118 -22 -114 -16 4 -19 18 -22 119 -3 109 -4 115 -31
141 l-27 28 -226 3 c-186 3 -230 0 -255 -12 -30 -15 -32 -14 -91 25 l-60 41
24 25 c23 24 23 27 23 264 l0 239 -28 27 -27 28 -239 0 c-237 0 -240 0 -264
-23 l-25 -24 -41 60 c-39 59 -40 61 -25 91 12 25 15 69 12 255 l-3 226 -28 27
c-26 27 -32 28 -142 31 -63 2 -115 5 -115 6 0 2 -9 40 -20 84 -135 541 -76
1104 166 1592 40 80 100 187 134 239 l61 93 25 -23 c25 -24 27 -24 265 -24
l239 0 27 28 28 27 0 239 c0 237 0 240 -23 264 l-24 25 60 41 c59 39 61 40 91
25 25 -12 69 -15 255 -12 l226 3 27 28 c27 26 28 32 31 141 3 101 6 115 22
119 17 4 19 -5 22 -114 3 -114 4 -120 31 -146 l27 -28 240 0 240 0 27 28 c28
27 28 28 31 187 3 148 5 160 22 160 17 0 19 -12 22 -160z m-1380 -317 c16 -15
18 -36 18 -241 0 -196 -2 -228 -17 -244 -15 -16 -36 -18 -241 -18 -196 0 -228
2 -244 17 -16 15 -18 36 -18 241 0 196 2 228 17 244 15 16 36 18 241 18 196 0
228 -2 244 -17z m3840 0 c16 -15 18 -36 18 -241 0 -196 -2 -228 -17 -244 -15
-16 -36 -18 -241 -18 -196 0 -228 2 -244 17 -16 15 -18 36 -18 241 0 196 2
228 17 244 15 16 36 18 241 18 196 0 228 -2 244 -17z m-3200 -3840 c16 -15 18
-36 18 -241 0 -196 -2 -228 -17 -244 -15 -16 -36 -18 -241 -18 -196 0 -228 2
-244 17 -16 15 -18 36 -18 241 0 196 2 228 17 244 15 16 36 18 241 18 196 0
228 -2 244 -17z m640 0 c16 -15 18 -36 18 -241 0 -196 -2 -228 -17 -244 -15
-16 -36 -18 -241 -18 -196 0 -228 2 -244 17 -16 15 -18 36 -18 241 0 196 2
228 17 244 15 16 36 18 241 18 196 0 228 -2 244 -17z m640 0 c16 -15 18 -36
18 -241 0 -196 -2 -228 -17 -244 -15 -16 -36 -18 -241 -18 -196 0 -228 2 -244
17 -16 15 -18 36 -18 241 0 196 2 228 17 244 15 16 36 18 241 18 196 0 228 -2
244 -17z"/>
<path d="M1365 4451 c-11 -5 -29 -19 -40 -31 -19 -21 -20 -36 -20 -261 l0
-239 28 -27 27 -28 240 0 240 0 27 28 28 27 0 240 0 240 -28 27 -27 28 -228 2
c-125 1 -236 -2 -247 -6z"/>
<path d="M2005 4451 c-11 -5 -29 -19 -40 -31 -19 -21 -20 -36 -20 -261 l0
-239 28 -27 27 -28 240 0 240 0 27 28 28 27 0 240 0 240 -28 27 -27 28 -228 2
c-125 1 -236 -2 -247 -6z"/>
<path d="M2645 4451 c-11 -5 -29 -19 -40 -31 -19 -21 -20 -36 -20 -261 l0
-239 28 -27 27 -28 240 0 240 0 27 28 28 27 0 240 0 240 -28 27 -27 28 -228 2
c-125 1 -236 -2 -247 -6z"/>
<path d="M3285 4451 c-11 -5 -29 -19 -40 -31 -19 -21 -20 -36 -20 -261 l0
-239 28 -27 27 -28 240 0 240 0 27 28 28 27 0 240 0 240 -28 27 -27 28 -228 2
c-125 1 -236 -2 -247 -6z"/>
<path d="M3925 3811 c-11 -5 -29 -19 -40 -31 -19 -21 -20 -36 -20 -261 l0
-239 28 -27 27 -28 240 0 240 0 27 28 28 27 0 240 0 240 -28 27 -27 28 -228 2
c-125 1 -236 -2 -247 -6z m477 -48 c16 -15 18 -36 18 -241 0 -196 -2 -228 -17
-244 -15 -16 -36 -18 -241 -18 -196 0 -228 2 -244 17 -16 15 -18 36 -18 241 0
196 2 228 17 244 15 16 36 18 241 18 196 0 228 -2 244 -17z"/>
<path d="M3110 3165 l0 -455 60 0 60 0 0 140 0 140 80 0 79 0 128 -140 128
-139 73 -1 c51 0 72 4 72 13 -1 6 -66 84 -145 171 l-145 159 87 96 c48 53 113
124 145 159 32 34 58 67 58 72 0 6 -33 10 -73 10 l-73 0 -128 -140 -128 -141
-77 3 -76 3 -3 253 -2 252 -60 0 -60 0 0 -455z"/>
<path d="M620 3135 l0 -425 60 0 60 0 2 340 3 341 65 -78 c36 -42 115 -137
176 -210 l112 -132 173 207 174 206 3 -337 2 -337 65 0 65 0 0 425 0 425 -75
0 -74 0 -161 -192 c-89 -106 -165 -194 -169 -196 -4 -1 -81 85 -172 193 l-163
195 -73 0 -73 0 0 -425z"/>
<path d="M1710 3330 l0 -60 273 0 c199 0 276 -3 285 -12 7 -7 12 -40 12 -80
l0 -68 -285 0 -285 0 0 -140 c0 -169 12 -205 83 -239 41 -20 59 -21 326 -21
l282 0 -3 294 c-4 411 22 386 -400 386 l-288 0 0 -60z m570 -415 l0 -75 -222
2 -223 3 -3 73 -3 72 226 0 225 0 0 -75z"/>
<path d="M2580 3368 c-18 -13 -43 -36 -54 -51 -20 -27 -21 -43 -24 -318 l-4
-289 66 0 66 0 2 278 3 277 203 3 202 2 0 60 0 60 -214 0 c-204 0 -214 -1
-246 -22z"/>
<path d="M4092 2086 c3 -391 4 -406 24 -432 48 -64 62 -69 230 -72 l155 -3 -3
63 -3 63 -137 3 -138 3 0 214 0 215 140 0 140 0 0 60 0 60 -140 0 -139 0 -3
113 -3 112 -63 3 -63 3 3 -405z"/>
<path d="M1832 2423 c-12 -2 -40 -21 -61 -41 -47 -45 -55 -83 -49 -235 3 -87
7 -107 26 -135 47 -65 55 -66 387 -72 l300 -5 3 -112 3 -113 -296 0 -295 0 0
35 0 35 -66 0 -67 0 6 -52 c7 -56 26 -89 71 -122 26 -20 40 -21 351 -21 311 0
325 1 351 21 64 48 69 62 69 217 0 133 -2 144 -23 175 -47 65 -55 66 -387 72
l-300 5 -3 113 -3 112 296 0 295 0 0 -35 0 -35 66 0 67 0 -6 52 c-7 60 -29 94
-78 123 -32 19 -53 20 -334 21 -165 1 -310 0 -323 -3z"/>
<path d="M2769 2239 c-71 -41 -74 -55 -74 -321 0 -223 1 -238 21 -264 11 -15
33 -37 48 -48 26 -20 41 -21 275 -21 274 0 281 1 321 68 18 29 20 52 20 268 0
229 -1 237 -23 270 -43 64 -64 69 -322 69 -215 0 -232 -2 -266 -21z m486 -314
l0 -210 -217 -3 -218 -2 0 208 c0 115 3 212 7 216 4 3 102 5 217 4 l211 -3 0
-210z"/>
<path d="M3562 2240 c-18 -11 -41 -34 -52 -52 -19 -31 -20 -51 -20 -320 l0
-288 60 0 60 0 0 274 c0 240 2 275 16 280 9 3 101 6 205 6 l189 0 0 60 0 60
-212 0 c-195 0 -216 -2 -246 -20z"/>
<path d="M725 1891 c-11 -5 -29 -19 -40 -31 -19 -21 -20 -36 -20 -261 l0 -239
28 -27 27 -28 240 0 240 0 27 28 28 27 0 240 0 240 -28 27 -27 28 -228 2
c-125 1 -236 -2 -247 -6z"/>
<path d="M1365 1251 c-11 -5 -29 -19 -40 -31 -19 -21 -20 -36 -20 -261 l0
-239 28 -27 27 -28 240 0 240 0 27 28 28 27 0 240 0 240 -28 27 -27 28 -228 2
c-125 1 -236 -2 -247 -6z m477 -48 c16 -15 18 -36 18 -241 0 -196 -2 -228 -17
-244 -15 -16 -36 -18 -241 -18 -196 0 -228 2 -244 17 -16 15 -18 36 -18 241 0
196 2 228 17 244 15 16 36 18 241 18 196 0 228 -2 244 -17z"/>
<path d="M2005 1251 c-11 -5 -29 -19 -40 -31 -19 -21 -20 -36 -20 -261 l0
-239 28 -27 27 -28 240 0 240 0 27 28 28 27 0 240 0 240 -28 27 -27 28 -228 2
c-125 1 -236 -2 -247 -6z m477 -48 c16 -15 18 -36 18 -241 0 -196 -2 -228 -17
-244 -15 -16 -36 -18 -241 -18 -196 0 -228 2 -244 17 -16 15 -18 36 -18 241 0
196 2 228 17 244 15 16 36 18 241 18 196 0 228 -2 244 -17z"/>
<path d="M2645 1251 c-11 -5 -29 -19 -40 -31 -19 -21 -20 -36 -20 -261 l0
-239 28 -27 27 -28 240 0 240 0 27 28 28 27 0 240 0 240 -28 27 -27 28 -228 2
c-125 1 -236 -2 -247 -6z m477 -48 c16 -15 18 -36 18 -241 0 -196 -2 -228 -17
-244 -15 -16 -36 -18 -241 -18 -196 0 -228 2 -244 17 -16 15 -18 36 -18 241 0
196 2 228 17 244 15 16 36 18 241 18 196 0 228 -2 244 -17z"/>
<path d="M3285 1251 c-11 -5 -29 -19 -40 -31 -19 -21 -20 -36 -20 -261 l0
-239 28 -27 27 -28 240 0 240 0 27 28 28 27 0 240 0 240 -28 27 -27 28 -228 2
c-125 1 -236 -2 -247 -6z"/>
<path d="M4565 5091 c-11 -5 -29 -19 -40 -31 -19 -21 -20 -36 -20 -261 l0
-239 28 -27 27 -28 240 0 240 0 27 28 28 27 0 240 0 240 -28 27 -27 28 -228 2
c-125 1 -236 -2 -247 -6z"/>
<path d="M85 611 c-11 -5 -29 -19 -40 -31 -19 -21 -20 -36 -20 -261 l0 -239
28 -27 27 -28 240 0 240 0 27 28 28 27 0 240 0 240 -28 27 -27 28 -228 2
c-125 1 -236 -2 -247 -6z"/>
<path d="M4565 611 c-11 -5 -29 -19 -40 -31 -19 -21 -20 -36 -20 -261 l0 -239
28 -27 27 -28 240 0 240 0 27 28 28 27 0 240 0 240 -28 27 -27 28 -228 2
c-125 1 -236 -2 -247 -6z"/>
</g>
</svg>
